<?xml version="1.0" standalone="no"?>
<!DOCTYPE svg PUBLIC "-//W3C//DTD SVG 20010904//EN"
 "http://www.w3.org/TR/2001/REC-SVG-20010904/DTD/svg10.dtd">
<svg version="1.0" xmlns="http://www.w3.org/2000/svg"
 width="512.000000pt" height="512.000000pt" viewBox="0 0 512.000000 512.000000"
 preserveAspectRatio="xMidYMid meet">
<metadata>
Created by potrace 1.14, written by Peter Selinger 2001-2017
</metadata>
<g transform="translate(0.000000,512.000000) scale(0.100000,-0.100000)"
fill="#000000" stroke="none">
<path d="M172 4893 c-37 -14 -72 -38 -99 -67 -79 -87 -73 47 -71 -1690 l3
-1551 30 -54 c33 -60 68 -90 141 -122 l49 -22 830 -1 830 -1 0 -195 0 -195
-410 -5 c-226 -3 -415 -8 -422 -12 -18 -12 -31 -61 -22 -85 20 -54 -68 -51
1532 -51 l1478 0 25 21 c34 30 37 70 8 102 l-23 25 -404 0 c-315 0 -406 3
-409 13 -2 6 -4 95 -4 197 l1 185 470 1 c501 1 509 2 521 49 7 27 6 27 89 27
114 0 114 0 130 -32 9 -18 27 -32 45 -37 32 -9 367 -8 412 0 75 14 150 73 190
150 l23 42 0 1565 c0 1492 -1 1567 -18 1603 -27 57 -74 105 -131 135 l-51 27
-1698 0 c-1637 1 -1700 1 -1722 -17 -13 -10 -27 -27 -30 -38 -6 -18 -15 -19
-101 -18 -88 1 -96 3 -104 22 -19 52 -7 51 -538 52 -491 0 -494 0 -550 -23z"/>
<path d="M4351 844 c-78 -16 -146 -52 -203 -107 -96 -94 -128 -183 -125 -346
2 -124 17 -157 76 -177 22 -7 192 -10 508 -10 l474 1 20 25 c17 22 19 40 18
150 -1 133 -14 197 -54 265 -53 91 -144 162 -245 192 -69 20 -381 25 -469 7z"/>
<path d="M72 644 c-16 -6 -39 -27 -50 -47 -20 -30 -22 -49 -22 -163 0 -103 4
-136 18 -164 35 -72 -122 -66 1914 -66 1735 1 1835 2 1861 19 55 36 61 57 61
208 0 124 -2 141 -20 166 -46 63 43 60 -1354 59 l-1272 -1 -24 -28 c-13 -16
-22 -32 -19 -37 3 -5 -42 -9 -100 -8 -58 0 -103 4 -100 8 3 5 -6 21 -19 37
l-24 28 -411 1 c-302 0 -417 -3 -439 -12z"/>
</g>
</svg>
